<?xml version="1.0" encoding="UTF-8" standalone="no"?>
<!-- Created with Inkscape (http://www.inkscape.org/) -->

<svg
   xmlns:dc="http://purl.org/dc/elements/1.1/"
   xmlns:cc="http://creativecommons.org/ns#"
   xmlns:rdf="http://www.w3.org/1999/02/22-rdf-syntax-ns#"
   xmlns:svg="http://www.w3.org/2000/svg"
   xmlns="http://www.w3.org/2000/svg"
   xmlns:sodipodi="http://sodipodi.sourceforge.net/DTD/sodipodi-0.dtd"
   xmlns:inkscape="http://www.inkscape.org/namespaces/inkscape"
   version="1.1"
   id="svg700"
   width="160"
   height="118"
   viewBox="0 0 160 118"
   sodipodi:docname="flyingotter.svg"
   inkscape:version="0.92.2 2405546, 2018-03-11">
  <metadata
     id="metadata706">
    <rdf:RDF>
      <cc:Work
         rdf:about="">
        <dc:format>image/svg+xml</dc:format>
        <dc:type
           rdf:resource="http://purl.org/dc/dcmitype/StillImage" />
        <dc:title></dc:title>
      </cc:Work>
    </rdf:RDF>
  </metadata>
  <defs
     id="defs704" />
  <sodipodi:namedview
     pagecolor="#ffffff"
     bordercolor="#666666"
     borderopacity="1"
     objecttolerance="10"
     gridtolerance="10"
     guidetolerance="10"
     inkscape:pageopacity="0"
     inkscape:pageshadow="2"
     inkscape:window-width="1366"
     inkscape:window-height="719"
     id="namedview702"
     showgrid="false"
     inkscape:zoom="3.30625"
     inkscape:cx="58.033673"
     inkscape:cy="71.913412"
     inkscape:window-x="0"
     inkscape:window-y="0"
     inkscape:window-maximized="1"
     inkscape:current-layer="svg700" />
  <path
     style="fill:#000000;stroke-width:0.36414236"
     d="m 94.854158,117.26041 c -0.549331,-0.29804 -3.449475,-1.1646 -6.444751,-1.92567 -3.826965,-0.97239 -5.909063,-1.70005 -7.003777,-2.44769 -1.985407,-1.35595 -7.398428,-6.85649 -10.017044,-10.17901 l -2.018043,-2.56051 -1.324488,1.22243 c -1.591018,1.46842 -6.31803,3.80707 -9.33562,4.61873 -3.031133,0.8153 -10.286225,1.11858 -14.051989,0.58739 C 38.909767,105.7652 35.427258,104.54674 25.725222,99.951735 15.41831,95.070252 10.976356,93.798066 4.2391151,93.798066 c -3.59986359,0 -4.03961533,0.126678 -4.03961533,-0.774351 0,-1.293879 1.43370453,-1.598044 8.62342793,-1.558695 8.7443903,0.04786 13.1481193,1.012888 26.2061353,5.742776 4.804038,1.740129 9.137318,1.595729 14.072622,-0.468934 5.487512,-2.295681 11.51714,-7.672561 15.956627,-14.229209 3.50833,-5.181444 7.068345,-9.932592 8.560486,-11.424734 1.143191,-1.143196 1.434129,-1.271931 2.086035,-0.923042 1.721665,0.921408 6.211347,2.253687 10.240707,3.038854 2.602515,0.507131 4.467356,1.058322 4.733851,1.399186 1.726672,2.208548 8.136192,5.324514 13.302649,6.467032 4.77279,1.05546 5.0351,0.826757 0.79241,-0.690902 -5.528155,-1.97747 -10.048083,-4.805823 -12.806268,-8.013523 -1.152522,-1.340354 -1.395405,-1.442653 -4.854644,-2.044711 -9.265841,-1.612666 -15.097729,-3.44574 -19.012566,-5.97602 -1.90913,-1.233933 -3.957863,-3.226385 -3.642152,-3.5421 0.06293,-0.06291 5.095808,1.18564 11.184234,2.774557 6.088415,1.588917 11.136896,2.821885 11.218851,2.739935 0.08193,-0.08196 -0.184996,-0.618074 -0.593222,-1.191373 C 85.575105,64.148771 84.661199,63.855309 72.32698,60.645973 58.299648,56.996102 56.583274,56.330646 55.426383,54.093465 55.100157,53.462603 54.88628,52.899679 54.95112,52.842523 c 0.06486,-0.05716 6.262793,1.508773 13.773229,3.479843 7.510437,1.971069 13.860169,3.58977 14.110517,3.59711 0.63437,0.01861 0.567664,-0.497523 -0.182071,-1.408793 -0.658529,-0.800404 -1.128899,-0.936418 -23.34684,-6.751163 -5.93288,-1.552714 -9.684275,-2.721665 -10.488779,-3.268342 -1.360686,-0.924612 -3.240523,-3.237211 -2.761276,-3.39696 0.163107,-0.05437 5.04347,1.143965 10.845248,2.662963 22.509983,5.893469 22.747472,5.950373 22.747472,5.450744 0,-1.439593 -1.289508,-1.966536 -10.742199,-4.389703 -5.207236,-1.334858 -10.860546,-2.808146 -12.562912,-3.273971 -1.702365,-0.465829 -5.143511,-1.370391 -7.646989,-2.010143 -2.503484,-0.63975 -5.100012,-1.49527 -5.770066,-1.901151 -1.15443,-0.699291 -3.503086,-3.500464 -3.194074,-3.809475 0.125344,-0.125345 8.611559,2.050886 30.764842,7.889429 6.83469,1.801299 6.788103,1.797873 6.089735,0.447396 C 75.954202,44.93669 77.458122,45.405979 57.800079,40.297961 36.067705,34.650942 36.159881,34.677519 34.502454,33.580685 32.155041,32.027242 30.59599,28.988719 32.401145,29.485327 c 1.135654,0.312425 33.132407,8.680821 55.076536,14.404654 10.013915,2.611997 19.250139,5.186407 20.524939,5.72091 2.70366,1.133597 4.05708,2.185779 5.20894,4.049533 0.76576,1.239001 0.83357,1.78464 0.86931,6.994365 0.0331,4.82765 0.1598,6.021736 0.86979,8.199526 2.06566,6.336193 4.99382,9.773817 9.11383,10.699525 2.16363,0.486134 4.45718,0.0094 8.33176,-1.731869 7.64765,-3.436898 16.83178,-4.2192 21.74342,-1.852104 0.81428,0.392429 2.05291,0.713508 2.7525,0.713508 1.7041,0 2.47799,0.640431 2.87196,2.376677 0.82967,3.656335 -2.86483,6.159242 -5.48642,3.71687 -0.76987,-0.717255 -0.77653,-0.773274 -0.14668,-1.233842 0.36291,-0.265362 0.55354,-0.588756 0.42364,-0.71866 -0.27937,-0.279366 -5.48808,2.171176 -8.08592,3.804177 -2.72714,1.71428 -1.60183,1.394014 2.49369,-0.70971 l 3.63671,-1.86805 0.72949,1.001443 c 0.40123,0.55079 1.21631,1.206126 1.81129,1.456296 1.06771,0.44894 0.98517,0.502275 -6.34369,4.098404 -6.39238,3.136617 -7.80546,3.986586 -10.15655,6.109165 -4.73046,4.27068 -7.19984,5.533035 -15.65812,8.004435 -2.50348,0.73148 -6.10849,1.8223 -8.01114,2.42403 -1.90265,0.60174 -5.83538,1.6623 -8.73941,2.3568 -3.66552,0.87661 -5.83681,1.60444 -7.100784,2.38021 l -1.820712,1.11747 -1.991858,-0.67575 c -1.095523,-0.37167 -2.39014,-1.01834 -2.87693,-1.43706 l -0.885082,-0.76131 1.784514,-0.47659 c 4.041536,-1.07938 11.099792,-5.47387 8.794242,-5.47532 -1.16063,-7.3e-4 -4.975481,-2.210705 -6.035056,-3.496145 -0.636213,-0.77185 -1.156755,-1.523744 -1.156755,-1.670875 0,-0.147136 -0.339506,-1.174917 -0.754457,-2.283959 -0.97622,-2.609183 -1.794539,-2.704668 -1.794539,-0.20939 0,2.663355 -1.271506,5.746359 -3.102789,7.523309 l -1.547195,1.5013 0.605523,2.57683 c 0.962371,4.09542 2.664452,5.39988 8.715474,6.67945 4.361834,0.92237 4.906714,1.18773 4.595344,2.23797 -0.27629,0.93193 -1.15595,1.70263 -1.962083,1.71907 -0.312206,0.007 -0.88573,0.25217 -1.274498,0.54621 -0.892991,0.67543 -2.283343,0.66125 -3.569221,-0.0364 z M 153.11142,80.004164 c -0.42929,-0.159356 -7.69327,3.440253 -8.23743,4.082002 -0.1988,0.23445 1.65728,-0.556914 4.12463,-1.758584 2.46733,-1.20167 4.3181,-2.247207 4.1128,-2.323418 z m 0.4581,-1.864219 c 0,-0.843496 -0.80807,-0.963463 -1.43131,-0.212496 -0.33983,0.409456 -0.29272,0.550889 0.22852,0.686045 1.13972,0.295533 1.20279,0.270699 1.20279,-0.473549 z M 104.71299,70.68556 c -0.46174,-1.013393 -0.86942,-1.169158 -7.186016,-2.745669 -2.48402,-0.619968 -4.978087,-1.365963 -5.542372,-1.657769 -0.980373,-0.50697 -2.113755,-1.984208 -1.51556,-1.975356 0.157253,0.0022 2.820567,0.657783 5.918474,1.456569 6.766814,1.744807 6.680384,1.7372 6.134924,0.540042 -0.26757,-0.587267 -0.88103,-1.034977 -1.72186,-1.25663 -0.71842,-0.189383 -3.423427,-0.871254 -6.011137,-1.515265 -3.58637,-0.892554 -4.971476,-1.409082 -5.826027,-2.17263 -0.616607,-0.550933 -1.032423,-1.090367 -0.924046,-1.198742 0.108333,-0.108378 2.975886,0.514569 6.372241,1.384327 3.396356,0.869757 6.229249,1.532627 6.295319,1.473047 0.41794,-0.376881 -1.320258,-2.040356 -2.435706,-2.331 -0.729217,-0.190006 -3.425817,-0.880015 -5.99244,-1.533349 -3.420344,-0.870649 -4.903348,-1.424648 -5.553171,-2.074464 -1.193192,-1.193192 -1.116096,-1.493563 0.29689,-1.156774 1.971057,0.469805 10.240957,2.573715 10.950637,2.7859 0.620851,0.185632 0.628088,0.129721 0.112315,-0.867704 -0.511666,-0.989444 -0.939146,-1.16302 -5.94368,-2.413379 -6.152799,-1.537245 -7.553962,-2.076788 -8.114821,-3.124763 -0.54,-1.009002 -0.43589,-0.996644 5.999735,0.712171 3.004174,0.797682 5.659341,1.451737 5.900369,1.453452 0.304821,0.0022 0.257767,-0.311338 -0.154567,-1.029791 -0.544052,-0.947958 -1.074243,-1.150111 -6.446583,-2.45796 -4.589992,-1.117394 -6.089575,-1.634753 -6.945958,-2.396353 -0.600699,-0.534211 -0.989739,-1.073739 -0.864531,-1.198946 0.125208,-0.125206 2.890163,0.441742 6.144344,1.25989 3.25417,0.818147 5.991553,1.412672 6.083055,1.32117 0.417125,-0.417129 -0.744944,-1.684727 -1.808672,-1.972905 -9.631042,-2.609215 -10.398552,-2.75272 -11.358454,-2.12377 -1.113866,0.729836 -1.166541,1.498522 -0.202668,2.957576 1.332693,2.017352 1.416344,2.18139 1.630482,3.197042 0.117379,0.556705 0.59989,1.34823 1.072263,1.758946 0.484548,0.421306 0.953438,1.338325 1.075892,2.10412 0.122398,0.765398 0.617074,1.733157 1.134292,2.219059 0.560086,0.526174 0.917241,1.261938 0.917241,1.889599 0,0.662266 0.451024,1.527137 1.267955,2.431379 0.697367,0.771909 1.179366,1.492058 1.071091,1.600329 -0.462427,0.462421 0.955885,2.776087 2.156735,3.518252 1.065253,0.658363 12.390165,3.908547 13.976625,4.011217 0.34403,0.02225 0.35266,-0.178935 0.0373,-0.870868 z m 7.09043,-22.238596 c -1.74262,-1.373545 -4.55235,-2.546167 -9.2018,-3.840296 -3.876936,-1.07911 -4.449948,-1.361429 -8.011135,-3.947022 -3.226392,-2.342518 -5.219139,-4.438328 -4.687946,-4.93039 0.06828,-0.06325 2.253119,1.411547 4.855212,3.277306 2.602082,1.865761 4.788882,3.334485 4.859537,3.263831 0.07067,-0.07065 0.02469,-0.601083 -0.102187,-1.178729 -0.175255,-0.797923 -1.0366,-1.623882 -3.585039,-3.43773 -1.844904,-1.313108 -3.732368,-2.613747 -4.194374,-2.890307 -0.92714,-0.555002 -2.457437,-2.788908 -2.132838,-3.113503 0.112998,-0.112986 2.261916,1.282435 4.775385,3.10094 4.509915,3.262942 4.569953,3.29262 4.569953,2.2593 0,-0.908978 -0.492275,-1.404488 -3.732459,-3.757037 -4.566846,-3.315764 -5.211185,-3.663406 -6.288727,-3.39296 -1.004453,0.252101 -1.2326,1.019463 -0.821141,2.761783 0.488792,2.069751 0.83549,7.943357 0.489304,8.28954 -0.407259,0.407257 -3.800474,-1.853991 -14.226586,-9.480614 -6.596872,-4.825556 -12.006388,-9.044024 -12.468075,-9.722891 -0.732712,-1.077382 -1.67988,-3.644644 -1.435006,-3.889521 0.05314,-0.05316 5.719049,3.993253 12.590848,8.992048 6.871799,4.998795 12.658783,9.088719 12.859983,9.088719 0.3807,0 0.07431,-1.816427 -0.376147,-2.22975 C 85.404152,33.544848 79.803403,29.466647 73.09408,24.607013 66.384758,19.747378 60.504996,15.425184 60.027947,15.002137 59.022072,14.11012 57.819697,11.681 57.80809,10.517453 c -0.0068,-0.6615129 2.437148,0.977515 13.920457,9.33651 11.464806,8.345537 13.949633,10.012478 14.04827,9.424267 0.06589,-0.393036 0.0404,-0.921532 -0.05656,-1.174433 C 85.623197,27.850894 78.743283,22.70241 70.431517,16.662723 56.091876,6.2429141 55.270939,5.5845771 54.374831,3.7863341 53.430723,1.8917431 53.119051,0.04527307 53.781995,0.27417007 54.082902,0.37806207 74.007133,14.783718 95.464734,30.411708 c 13.908396,10.129744 15.273296,11.303855 16.538996,14.22714 0.64149,1.481589 1.3903,4.739763 1.08703,4.729812 -0.0677,-0.0022 -0.64694,-0.416983 -1.28726,-0.921696 z M 91.665318,41.76552 c -0.577473,-0.159687 -0.954929,-0.561256 -1.03223,-1.098184 -0.121703,-0.84528 -0.119951,-0.845029 1.274498,0.182271 0.767999,0.565794 1.464649,1.076307 1.548095,1.134479 0.257539,0.179526 -0.831542,0.04657 -1.790363,-0.218566 z M 77.781071,38.139405 c -2.929321,-0.80663 -4.006044,-1.324943 -6.544344,-3.15033 -1.670993,-1.201669 -3.486231,-2.652292 -4.033867,-3.223604 -1.030113,-1.074655 -1.898888,-3.132431 -1.692033,-4.007723 0.07567,-0.320268 2.756842,1.421741 7.443184,4.836024 4.028689,2.935135 7.71563,5.608441 8.193203,5.940676 1.138275,0.791858 0.799975,0.752155 -3.366143,-0.395043 z"
     id="path718"
     inkscape:connector-curvature="0"
     sodipodi:nodetypes="cssccsssssssssccsscscssccsccsccsccsscssscscsscssssccccccssccccsscccssccsscscccccscsccssccccccsccsccscsccsccsccscsscsccssscsscsscccsccccsccsccccssscccsccsscscssscsscsccsccsccscccccccccscccccs" />
</svg>
